<svg width="43" height="48" viewBox="0 0 43 48" fill="none" xmlns="http://www.w3.org/2000/svg">
<path d="M11.4316 0C12.1816 0 12.9316 0.75 12.9316 1.5V6H30.9316V1.5C30.9316 0.75 31.5879 0 32.4316 0C33.1816 0 33.9316 0.75 33.9316 1.5V6H36.9316C40.2129 6 42.9316 8.71875 42.9316 12V42C42.9316 45.375 40.2129 48 36.9316 48H6.93164C3.55664 48 0.931641 45.375 0.931641 42V12C0.931641 8.71875 3.55664 6 6.93164 6H9.93164V1.5C9.93164 0.75 10.5879 0 11.4316 0ZM39.9316 18H30.1816V24.75H39.9316V18ZM39.9316 27.75H30.1816V35.25H39.9316V27.75ZM39.9316 38.25H30.1816V45H36.9316C38.5254 45 39.9316 43.6875 39.9316 42V38.25ZM27.1816 35.25V27.75H16.6816V35.25H27.1816ZM16.6816 45H27.1816V38.25H16.6816V45ZM13.6816 35.25V27.75H3.93164V35.25H13.6816ZM3.93164 38.25V42C3.93164 43.6875 5.24414 45 6.93164 45H13.6816V38.25H3.93164ZM3.93164 24.75H13.6816V18H3.93164V24.75ZM16.6816 24.75H27.1816V18H16.6816V24.75ZM36.9316 9H6.93164C5.24414 9 3.93164 10.4062 3.93164 12V15H39.9316V12C39.9316 10.4062 38.5254 9 36.9316 9Z" fill="#737B81"/>
</svg>
