<svg width="27" height="25" viewBox="0 0 27 25" fill="none" xmlns="http://www.w3.org/2000/svg">
<path d="M24.6253 9.59375C24.6722 10.3906 24.2972 11.1406 23.6409 11.6094L15.5315 16.6719C15.1565 16.9062 14.7815 17.0469 14.3597 17.0469C14.0784 17.0469 13.7972 16.9531 13.6097 16.9062L10.2347 15.5L8.21904 21.0312C8.07842 21.3125 7.79717 21.5469 7.51592 21.5469H1.51592V23.75C1.51592 24.1719 1.14092 24.5 0.719042 24.5C0.344042 24.5 0.0159168 24.1719 0.0159168 23.75V17.75C0.0159168 17.375 0.344042 17 0.765917 17.0469C1.14092 17.0469 1.51592 17.375 1.51592 17.7969V20.0469H6.95342L8.82842 14.8906L1.37529 11.8438C0.812792 11.6094 0.344042 11.1875 0.109667 10.5781C-0.0778332 9.96875 -0.0309582 9.3125 0.297167 8.79688L4.37529 1.57812C4.65654 1.10938 5.31279 0.5 6.20342 0.5C6.48467 0.5 6.71904 0.59375 7.04717 0.6875L23.2659 7.8125C24.0628 8.14062 24.5315 8.84375 24.6253 9.59375ZM22.844 10.3438C23.2659 10.0625 23.219 9.40625 22.7503 9.21875L6.43779 2.04688C6.01592 1.90625 5.73467 2.23438 5.68779 2.32812L1.56279 9.5C1.46904 9.73438 1.42217 10.25 1.89092 10.4375L14.1722 15.5C14.3597 15.5469 14.594 15.5 14.6878 15.4062L22.844 10.3438ZM26.5472 13.3906C26.9222 13.5781 27.1097 14 26.9222 14.375L24.9534 18.7812C24.8597 19.0625 24.5784 19.2031 24.2972 19.2031C24.2034 19.2031 24.0628 19.2031 23.969 19.1562L19.1878 17.0469C18.8128 16.8594 18.6253 16.4375 18.8128 16.0625C18.9534 15.6875 19.4222 15.5 19.7972 15.6406L23.9222 17.4688L25.2347 14.4688L23.6878 13.7656C23.3128 13.5781 23.1253 13.1562 23.3128 12.7812C23.5003 12.4062 23.9222 12.2188 24.2972 12.4062L26.5472 13.3906Z" fill="#42525C"/>
</svg>
