<svg width="68" height="68" viewBox="0 0 68 68" fill="none" xmlns="http://www.w3.org/2000/svg">
<circle cx="34" cy="34" r="34" fill="black" fill-opacity="0.42"/>
<circle cx="34" cy="34" r="33.5" stroke="white" stroke-opacity="0.72"/>
<path d="M50.3938 28.1406C50.4641 29.3359 49.9016 30.4609 48.9172 31.1641L36.7531 38.7578C36.1906 39.1094 35.6281 39.3203 34.9953 39.3203C34.5734 39.3203 34.1516 39.1797 33.8703 39.1094L28.8078 37L25.7844 45.2969C25.5734 45.7188 25.1516 46.0703 24.7297 46.0703H15.7297V49.375C15.7297 50.0078 15.1672 50.5 14.5344 50.5C13.9719 50.5 13.4797 50.0078 13.4797 49.375V40.375C13.4797 39.8125 13.9719 39.25 14.6047 39.3203C15.1672 39.3203 15.7297 39.8125 15.7297 40.4453V43.8203H23.8859L26.6984 36.0859L15.5188 31.5156C14.675 31.1641 13.9719 30.5312 13.6203 29.6172C13.3391 28.7031 13.4094 27.7188 13.9016 26.9453L20.0188 16.1172C20.4406 15.4141 21.425 14.5 22.7609 14.5C23.1828 14.5 23.5344 14.6406 24.0266 14.7812L48.3547 25.4688C49.55 25.9609 50.2531 27.0156 50.3938 28.1406ZM47.7219 29.2656C48.3547 28.8438 48.2844 27.8594 47.5813 27.5781L23.1125 16.8203C22.4797 16.6094 22.0578 17.1016 21.9875 17.2422L15.8 28C15.6594 28.3516 15.5891 29.125 16.2922 29.4062L34.7141 37C34.9953 37.0703 35.3469 37 35.4875 36.8594L47.7219 29.2656ZM53.2766 33.8359C53.8391 34.1172 54.1203 34.75 53.8391 35.3125L50.8859 41.9219C50.7453 42.3438 50.3234 42.5547 49.9016 42.5547C49.7609 42.5547 49.55 42.5547 49.4094 42.4844L42.2375 39.3203C41.675 39.0391 41.3938 38.4062 41.675 37.8438C41.8859 37.2812 42.5891 37 43.1516 37.2109L49.3391 39.9531L51.3078 35.4531L48.9875 34.3984C48.425 34.1172 48.1438 33.4844 48.425 32.9219C48.7063 32.3594 49.3391 32.0781 49.9016 32.3594L53.2766 33.8359Z" fill="white"/>
</svg>
