<svg width="48" height="48" viewBox="0 0 48 48" fill="none" xmlns="http://www.w3.org/2000/svg"><path d="M22.5 10.5c0-.75.656-1.5 1.5-1.5.75 0 1.5.75 1.5 1.5v12.75l8.25 5.531c.75.469.938 1.407.469 2.063-.469.75-1.407.937-2.063.468l-9-6a1.496 1.496 0 01-.75-1.312l.094-13.5zM24 0c13.219 0 24 10.781 24 24 0 13.313-10.781 24-24 24C10.687 48 0 37.312 0 24 0 10.781 10.688 0 24 0zM3 24c0 11.625 9.375 21 21 21 11.531 0 21-9.375 21-21 0-11.531-9.469-21-21-21C12.375 3 3 12.469 3 24z" fill="#737B81"/></svg>