<svg width="185" height="138" viewBox="0 0 185 138" fill="none" xmlns="http://www.w3.org/2000/svg"><g filter="url(#filter0_d_30_1923)"><path d="M115.284 88.67H70.641a3.443 3.443 0 01-3.445-3.445v-61.23a3.443 3.443 0 013.445-3.445h44.643a3.443 3.443 0 013.444 3.444v61.231a3.443 3.443 0 01-3.444 3.445z" fill="url(#paint0_linear_30_1923)"/></g><path d="M98.764 72.15H87.16a2.33 2.33 0 01-2.334-2.334 2.33 2.33 0 012.334-2.335h11.603a2.331 2.331 0 012.334 2.335 2.331 2.331 0 01-2.334 2.334zm5.325 5.053H81.813c-.68 0-1.224-.544-1.224-1.224 0-.68.544-1.223 1.224-1.223h22.276c.68 0 1.224.544 1.224 1.224 0 .657-.544 1.223-1.224 1.223z" fill="#D5DDEA"/><path d="M108.191 44.843a15.17 15.17 0 01-5.212 11.466 15.188 15.188 0 01-10.017 3.74c-3.83 0-7.342-1.405-10.016-3.762a15.17 15.17 0 01-5.212-11.467c0-8.407 6.821-15.228 15.228-15.228 8.408 0 15.229 6.843 15.229 15.25z" fill="#D9DEEA"/><path d="M102.979 56.31a15.188 15.188 0 01-10.017 3.739c-3.83 0-7.342-1.405-10.016-3.762 1.11-.43 2.56-.997 4.51-1.79.453-.182.793-.522.997-.952.113-.25.158-.499.158-.77v-3.65c-.068-.067-.113-.158-.158-.226a3.65 3.65 0 01-.59-1.586l-.317-.159c-.929.227-.86-.77-1.11-2.696-.09-.794.022-.952.385-1.088l.295-.408c-1.813-4.08-.907-6.64.883-7.546-.589-1.292-.634-1.768-.634-1.768s3.807.635 5.099.385c1.654-.34 4.215.068 5.166 2.267 1.587.611 2.199 1.631 2.335 2.696.136.997-.159 2.085-.454 2.923a1.102 1.102 0 01-.068.16c0 .022-.022.044-.022.067-.046.113-.068.204-.114.295-.022.045-.022.09-.045.136-.022.09-.068.181-.09.249 0 .023 0 .023-.023.045l-.068.204c-.023.09-.046.159-.068.227.022.023.022.068.045.09.25.114.34.34.25 1.043-.227 1.835-.16 2.946-1.111 2.697l-.838 1.45c-.023.159-.046.25-.068.34-.023.272-.023.816-.023 3.807 0 .363.113.703.294.997.204.317.5.59.862.748 0 0 .022 0 .022.023 1.972.838 3.422 1.382 4.533 1.813z" fill="#fff"/><path d="M99.035 43.325c.069-.454-.135-1.043-.294-1.428-.023-.068-.068-.136-.09-.204-.726-1.45-2.358-2.062-3.898-2.153-3.944-.204-4.329.544-5.552-.59.385.567.407 1.496-.182 2.63-.408.793-1.2 1.155-1.926 1.382-1.813-4.08-.907-6.64.884-7.546-.59-1.292-.635-1.768-.635-1.768s3.807.635 5.1.385c1.653-.34 4.214.068 5.166 2.267 1.586.611 2.198 1.631 2.334 2.696.272 1.7-.725 3.58-.906 4.328z" fill="url(#paint1_linear_30_1923)"/><path d="M97.585 53.771v.703H88.43v-.93c.113-.248.159-.498.159-.77v-3.648c-.068-.068-.114-.159-.16-.227v-.227c.205.34.454.635.749.907l2.855 2.017c.657.566 1.632.566 2.312.023l2.674-2.403c.09-.068.18-.158.271-.249-.022.272-.022.816-.022 3.807.045.363.136.703.317.997z" fill="url(#paint2_linear_30_1923)"/><g filter="url(#filter1_d_30_1923)"><path d="M54.642 78.132H25.93a3.443 3.443 0 01-3.445-3.444V34.532a3.443 3.443 0 013.445-3.445h28.712a3.443 3.443 0 013.444 3.445V74.71a3.424 3.424 0 01-3.444 3.422z" fill="url(#paint3_linear_30_1923)"/></g><path d="M44.286 66.734h-8.023a1.615 1.615 0 01-1.608-1.61c0-.883.725-1.608 1.608-1.608h8.023c.883 0 1.609.725 1.609 1.609s-.726 1.609-1.61 1.609zm3.694 3.49H32.592a.837.837 0 01-.838-.839c0-.476.385-.838.838-.838H47.98c.475 0 .838.385.838.838a.851.851 0 01-.838.839z" fill="#D5DDEA"/><path d="M50.79 47.857a10.52 10.52 0 01-3.604 7.931 10.5 10.5 0 01-6.911 2.584c-2.652 0-5.077-.975-6.912-2.584a10.52 10.52 0 01-3.603-7.931c0-5.802 4.713-10.515 10.515-10.515 5.8 0 10.514 4.713 10.514 10.515z" fill="#D9DEEA"/><path d="M47.186 55.789a10.5 10.5 0 01-6.911 2.583c-2.652 0-5.077-.974-6.912-2.583.77-.295 1.767-.68 3.104-1.247a1.282 1.282 0 00.794-1.2v-2.516a.688.688 0 01-.114-.159 2.36 2.36 0 01-.408-1.087l-.226-.114c-.635.159-.59-.544-.77-1.858-.069-.544.022-.657.248-.748l.205-.272c-1.247-2.832-.612-4.6.611-5.212-.408-.884-.43-1.223-.43-1.223s2.628.43 3.535.272c1.156-.227 2.9.045 3.558 1.563 1.087.43 1.518 1.133 1.609 1.858.09.703-.114 1.428-.295 2.017-.023.045-.023.068-.045.114 0 .022-.023.022-.023.045l-.068.204c-.023.022-.023.068-.045.09-.023.068-.046.114-.068.182v.022a.321.321 0 00-.045.136c-.023.068-.046.114-.046.159.023.023.023.045.023.068.181.09.227.227.159.703-.16 1.269-.114 2.039-.771 1.858l-.566 1.02c-.023.113-.046.158-.046.249-.023.181-.023.566-.023 2.629 0 .249.069.475.205.68.135.226.34.407.589.498h.022c1.405.59 2.402.974 3.15 1.269z" fill="#fff"/><path d="M44.49 46.814c.045-.317-.091-.702-.204-.997l-.068-.136c-.499-.997-1.632-1.427-2.697-1.473-2.72-.136-2.991.386-3.83-.408.272.408.295 1.02-.113 1.813-.295.544-.839.793-1.315.952-1.246-2.833-.611-4.6.612-5.212-.407-.884-.43-1.224-.43-1.224s2.629.43 3.535.272c1.156-.227 2.9.045 3.558 1.564 1.088.43 1.518 1.133 1.609 1.858.136 1.178-.544 2.47-.657 2.991z" fill="url(#paint4_linear_30_1923)"/><path d="M43.492 54.043v.499H37.17v-.657a1.37 1.37 0 00.113-.544v-2.516a.69.69 0 01-.113-.158v-.136c.136.226.317.453.521.612l1.972 1.382a1.264 1.264 0 001.609.023l1.858-1.655a.691.691 0 00.181-.18c-.023.18-.023.566-.023 2.628 0 .25.069.498.205.702z" fill="url(#paint5_linear_30_1923)"/><g filter="url(#filter2_d_30_1923)"><path d="M159.315 78.132h-28.712a3.443 3.443 0 01-3.445-3.444V34.532a3.443 3.443 0 013.445-3.445h28.712a3.443 3.443 0 013.444 3.445V74.71a3.424 3.424 0 01-3.444 3.422z" fill="url(#paint6_linear_30_1923)"/></g><path d="M148.959 66.734h-8.023a1.615 1.615 0 01-1.608-1.61c0-.883.725-1.608 1.608-1.608h8.023c.883 0 1.609.725 1.609 1.609.022.884-.703 1.609-1.609 1.609zm3.693 3.49h-15.387a.836.836 0 01-.838-.839c0-.476.385-.838.838-.838h15.387c.476 0 .839.385.839.838a.837.837 0 01-.839.839z" fill="#D5DDEA"/><path d="M155.485 47.857a10.52 10.52 0 01-3.603 7.931 10.499 10.499 0 01-6.912 2.584c-2.651 0-5.076-.975-6.912-2.584a10.52 10.52 0 01-3.603-7.931c0-5.802 4.714-10.515 10.515-10.515 5.802 0 10.515 4.713 10.515 10.515z" fill="#D9DEEA"/><path d="M151.882 55.789a10.499 10.499 0 01-6.912 2.583c-2.651 0-5.076-.974-6.912-2.583.771-.295 1.768-.68 3.105-1.247.317-.136.544-.362.68-.657.068-.158.113-.34.113-.543v-2.516a.707.707 0 01-.113-.159 2.352 2.352 0 01-.408-1.087l-.227-.114c-.634.159-.589-.544-.77-1.858-.068-.544.023-.657.249-.748l.204-.272c-1.246-2.832-.612-4.6.612-5.212-.408-.884-.431-1.223-.431-1.223s2.629.43 3.536.272c1.155-.227 2.9.045 3.557 1.563 1.088.43 1.519 1.133 1.609 1.858.091.703-.113 1.428-.294 2.017-.023.045-.023.068-.046.114 0 .022-.022.022-.022.045l-.068.204c-.023.022-.023.068-.045.09-.023.068-.046.114-.068.182v.022c-.023.046-.046.091-.046.136-.022.068-.045.114-.045.159.023.023.023.045.023.068.181.09.226.227.158.703-.158 1.269-.113 2.039-.77 1.858l-.567 1.02c-.022.113-.045.158-.045.249-.023.181-.023.566-.023 2.629 0 .249.068.475.204.68.136.226.34.407.589.498h.023c1.382.59 2.379.974 3.15 1.269z" fill="#fff"/><path d="M149.163 46.814c.045-.317-.091-.702-.204-.997a8.608 8.608 0 01-.068-.136c-.499-.997-1.632-1.427-2.697-1.473-2.719-.136-2.991.386-3.83-.408.272.408.295 1.02-.113 1.813-.295.544-.839.793-1.315.952-1.246-2.833-.611-4.6.612-5.212-.408-.884-.43-1.224-.43-1.224s2.628.43 3.535.272c1.156-.227 2.901.045 3.558 1.564 1.088.43 1.518 1.133 1.609 1.858.136 1.178-.521 2.47-.657 2.991z" fill="url(#paint7_linear_30_1923)"/><path d="M148.165 54.043v.499h-6.322v-.657a1.37 1.37 0 00.113-.544v-2.516a.708.708 0 01-.113-.158v-.136c.136.226.317.453.521.612l1.972 1.382a1.264 1.264 0 001.609.023l1.858-1.655a.684.684 0 00.181-.18c-.023.18-.023.566-.023 2.628 0 .25.068.498.204.702z" fill="url(#paint8_linear_30_1923)"/><path d="M153.944 121.348l-28.667-28.644 6.572-6.572 28.644 28.667-6.549 6.549z" fill="#858B9B"/><path d="M168.221 135.738l-21.982-21.982a4.72 4.72 0 010-6.662 4.719 4.719 0 016.663 0l21.981 21.981a4.719 4.719 0 010 6.663 4.72 4.72 0 01-6.662 0z" fill="#858B9B"/><path d="M166.657 137.143l-28.281-28.282c-.657-.657-.657-1.722 0-2.402l7.229-7.229c.657-.657 1.722-.657 2.402 0l28.281 28.282c.657.657.657 1.722 0 2.402l-7.229 7.229c-.68.657-1.745.657-2.402 0z" fill="url(#paint9_linear_30_1923)"/><path d="M92.826.404c-30.003 0-54.319 24.316-54.319 54.32 0 29.98 24.316 54.319 54.297 54.319 30.003 0 54.319-24.316 54.319-54.32 0-30.003-24.316-54.32-54.297-54.32zm0 98.577c-24.089 0-43.6-19.829-43.6-44.28 0-24.452 19.511-44.258 43.6-44.258 24.089 0 43.601 19.828 43.601 44.28s-19.534 44.258-43.6 44.258z" fill="url(#paint10_linear_30_1923)"/><defs><linearGradient id="paint0_linear_30_1923" x1="92.945" y1="18.974" x2="92.945" y2="89.404" gradientUnits="userSpaceOnUse"><stop stop-color="#FDFEFF"/><stop offset=".996" stop-color="#ECF0F5"/></linearGradient><linearGradient id="paint1_linear_30_1923" x1="86.097" y1="38.487" x2="99.991" y2="38.487" gradientUnits="userSpaceOnUse"><stop stop-color="#B0BACC"/><stop offset="1" stop-color="#969EAE"/></linearGradient><linearGradient id="paint2_linear_30_1923" x1="93.01" y1="54.509" x2="93.01" y2="51.313" gradientUnits="userSpaceOnUse"><stop stop-color="#fff"/><stop offset="1" stop-color="#E2E5EC"/></linearGradient><linearGradient id="paint3_linear_30_1923" x1="40.274" y1="29.999" x2="40.274" y2="78.639" gradientUnits="userSpaceOnUse"><stop stop-color="#FDFEFF"/><stop offset=".996" stop-color="#ECF0F5"/></linearGradient><linearGradient id="paint4_linear_30_1923" x1="35.582" y1="43.472" x2="45.166" y2="43.472" gradientUnits="userSpaceOnUse"><stop stop-color="#B0BACC"/><stop offset="1" stop-color="#969EAE"/></linearGradient><linearGradient id="paint5_linear_30_1923" x1="40.333" y1="54.566" x2="40.333" y2="52.357" gradientUnits="userSpaceOnUse"><stop stop-color="#fff"/><stop offset="1" stop-color="#E2E5EC"/></linearGradient><linearGradient id="paint6_linear_30_1923" x1="144.947" y1="29.999" x2="144.947" y2="78.639" gradientUnits="userSpaceOnUse"><stop stop-color="#FDFEFF"/><stop offset=".996" stop-color="#ECF0F5"/></linearGradient><linearGradient id="paint7_linear_30_1923" x1="140.255" y1="43.472" x2="149.84" y2="43.472" gradientUnits="userSpaceOnUse"><stop stop-color="#B0BACC"/><stop offset="1" stop-color="#969EAE"/></linearGradient><linearGradient id="paint8_linear_30_1923" x1="145.006" y1="54.566" x2="145.006" y2="52.357" gradientUnits="userSpaceOnUse"><stop stop-color="#fff"/><stop offset="1" stop-color="#E2E5EC"/></linearGradient><linearGradient id="paint9_linear_30_1923" x1="137.865" y1="118.191" x2="176.788" y2="118.191" gradientUnits="userSpaceOnUse"><stop stop-color="#B0BACC"/><stop offset="1" stop-color="#969EAE"/></linearGradient><linearGradient id="paint10_linear_30_1923" x1="38.457" y1="54.735" x2="147.143" y2="54.735" gradientUnits="userSpaceOnUse"><stop stop-color="#B0BACC"/><stop offset="1" stop-color="#969EAE"/></linearGradient><filter id="filter0_d_30_1923" x="45.196" y="9.55" width="95.532" height="112.12" filterUnits="userSpaceOnUse" color-interpolation-filters="sRGB"><feFlood flood-opacity="0" result="BackgroundImageFix"/><feColorMatrix in="SourceAlpha" values="0 0 0 0 0 0 0 0 0 0 0 0 0 0 0 0 0 0 127 0" result="hardAlpha"/><feOffset dy="11"/><feGaussianBlur stdDeviation="11"/><feColorMatrix values="0 0 0 0 0.397708 0 0 0 0 0.47749 0 0 0 0 0.575 0 0 0 0.27 0"/><feBlend in2="BackgroundImageFix" result="effect1_dropShadow_30_1923"/><feBlend in="SourceGraphic" in2="effect1_dropShadow_30_1923" result="shape"/></filter><filter id="filter1_d_30_1923" x=".485" y="20.087" width="79.601" height="91.045" filterUnits="userSpaceOnUse" color-interpolation-filters="sRGB"><feFlood flood-opacity="0" result="BackgroundImageFix"/><feColorMatrix in="SourceAlpha" values="0 0 0 0 0 0 0 0 0 0 0 0 0 0 0 0 0 0 127 0" result="hardAlpha"/><feOffset dy="11"/><feGaussianBlur stdDeviation="11"/><feColorMatrix values="0 0 0 0 0.397708 0 0 0 0 0.47749 0 0 0 0 0.575 0 0 0 0.27 0"/><feBlend in2="BackgroundImageFix" result="effect1_dropShadow_30_1923"/><feBlend in="SourceGraphic" in2="effect1_dropShadow_30_1923" result="shape"/></filter><filter id="filter2_d_30_1923" x="105.158" y="20.087" width="79.601" height="91.045" filterUnits="userSpaceOnUse" color-interpolation-filters="sRGB"><feFlood flood-opacity="0" result="BackgroundImageFix"/><feColorMatrix in="SourceAlpha" values="0 0 0 0 0 0 0 0 0 0 0 0 0 0 0 0 0 0 127 0" result="hardAlpha"/><feOffset dy="11"/><feGaussianBlur stdDeviation="11"/><feColorMatrix values="0 0 0 0 0.397708 0 0 0 0 0.47749 0 0 0 0 0.575 0 0 0 0.27 0"/><feBlend in2="BackgroundImageFix" result="effect1_dropShadow_30_1923"/><feBlend in="SourceGraphic" in2="effect1_dropShadow_30_1923" result="shape"/></filter></defs></svg>