<svg width="36" height="48" viewBox="0 0 36 48" fill="none" xmlns="http://www.w3.org/2000/svg"><path d="M6 11.25C6 10.031 6.938 9 8.25 9h4.5C13.969 9 15 10.031 15 11.25v4.5c0 1.313-1.031 2.25-2.25 2.25h-4.5C6.937 18 6 17.062 6 15.75v-4.5zM9 12v3h3v-3H9zm18.75-3C28.969 9 30 10.031 30 11.25v4.5c0 1.313-1.031 2.25-2.25 2.25h-4.5c-1.313 0-2.25-.938-2.25-2.25v-4.5c0-1.219.938-2.25 2.25-2.25h4.5zM27 15v-3h-3v3h3zM6 23.25C6 22.031 6.938 21 8.25 21h4.5c1.219 0 2.25 1.031 2.25 2.25v4.5c0 1.313-1.031 2.25-2.25 2.25h-4.5C6.937 30 6 29.062 6 27.75v-4.5zM9 24v3h3v-3H9zm18.75-3c1.219 0 2.25 1.031 2.25 2.25v4.5c0 1.313-1.031 2.25-2.25 2.25h-4.5c-1.313 0-2.25-.938-2.25-2.25v-4.5c0-1.219.938-2.25 2.25-2.25h4.5zM27 27v-3h-3v3h3zM6 48c-3.375 0-6-2.625-6-6V6c0-3.281 2.625-6 6-6h24c3.281 0 6 2.719 6 6v36c0 3.375-2.719 6-6 6H6zM3 6v36c0 1.688 1.313 3 3 3h6v-6c0-3.281 2.625-6 6-6 3.281 0 6 2.719 6 6v6h6c1.594 0 3-1.313 3-3V6c0-1.594-1.406-3-3-3H6C4.312 3 3 4.406 3 6zm18 33c0-1.594-1.406-3-3-3-1.688 0-3 1.406-3 3v6h6v-6z" fill="#737B81"/></svg>