<svg width="49" height="36" viewBox="0 0 49 36" fill="none" xmlns="http://www.w3.org/2000/svg">
<path d="M6.93115 3C5.24365 3 3.93115 4.40625 3.93115 6V9.75L22.2124 23.25C23.8062 24.375 25.9624 24.375 27.5562 23.25L45.9312 9.75V6C45.9312 4.40625 44.5249 3 42.9312 3H6.93115ZM3.93115 13.5V30C3.93115 31.6875 5.24365 33 6.93115 33H42.9312C44.5249 33 45.9312 31.6875 45.9312 30V13.5L29.3374 25.6875C26.7124 27.5625 23.0562 27.5625 20.4312 25.6875L3.93115 13.5ZM0.931152 6C0.931152 2.71875 3.55615 0 6.93115 0H42.9312C46.2124 0 48.9312 2.71875 48.9312 6V30C48.9312 33.375 46.2124 36 42.9312 36H6.93115C3.55615 36 0.931152 33.375 0.931152 30V6Z" fill="#737B81"/>
</svg>
