<svg width="353" height="200" viewBox="0 0 353 200" fill="none" xmlns="http://www.w3.org/2000/svg"><path d="M294.414 58.469h1.125v5.771c0 .64-.143 1.174-.428 1.6a2.672 2.672 0 01-1.136.96 3.67 3.67 0 01-1.53.317 3.785 3.785 0 01-1.57-.316 2.566 2.566 0 01-1.107-.961c-.27-.426-.405-.96-.405-1.6v-5.77h1.119v5.771c0 .446.082.813.247 1.102.164.289.392.504.685.644a2.38 2.38 0 001.031.211c.395 0 .739-.07 1.032-.21a1.54 1.54 0 00.691-.645c.164-.29.246-.656.246-1.102V58.47zm3.82 3.545V67h-1.084v-6.34h1.026l.058 1.354zm-.257 1.576l-.452-.018c.004-.433.069-.834.194-1.2a3.01 3.01 0 01.527-.968 2.35 2.35 0 011.858-.861c.312 0 .593.043.843.129.25.082.463.215.639.398.18.184.316.422.41.715.094.29.141.643.141 1.06V67h-1.09v-4.166c0-.332-.049-.598-.147-.797a.898.898 0 00-.427-.44 1.537 1.537 0 00-.692-.14 1.61 1.61 0 00-.738.17 1.76 1.76 0 00-.568.469c-.157.199-.28.427-.37.685a2.531 2.531 0 00-.128.809zm9.498 1.728c0-.156-.036-.3-.106-.433-.066-.137-.205-.26-.416-.37-.207-.113-.519-.21-.937-.292a7.422 7.422 0 01-.955-.264 2.881 2.881 0 01-.721-.37 1.546 1.546 0 01-.451-.509 1.416 1.416 0 01-.159-.685c0-.25.055-.487.165-.71.113-.222.271-.42.474-.591.207-.172.455-.307.744-.404a3.01 3.01 0 01.967-.147c.508 0 .941.09 1.301.27.359.18.635.42.826.72.191.297.287.627.287.99h-1.084a.934.934 0 00-.158-.51 1.17 1.17 0 00-.451-.415 1.46 1.46 0 00-.721-.164c-.301 0-.545.047-.732.14a.941.941 0 00-.405.346.87.87 0 00-.064.762.7.7 0 00.223.252c.105.074.253.144.445.21.191.067.435.133.732.2.52.117.948.258 1.283.422.336.164.586.365.75.603.165.238.247.528.247.867a1.683 1.683 0 01-.674 1.36 2.476 2.476 0 01-.774.386 3.45 3.45 0 01-1.002.135c-.558 0-1.031-.1-1.418-.299-.386-.199-.679-.457-.879-.773a1.851 1.851 0 01-.298-1.002h1.09c.015.297.101.533.257.709.157.172.348.295.575.37.226.07.451.105.673.105.297 0 .545-.04.745-.118.203-.078.357-.185.462-.322a.744.744 0 00.159-.469zm5.045.909c.257 0 .496-.053.714-.159.219-.105.399-.25.539-.433.141-.188.221-.4.241-.639h1.031a1.94 1.94 0 01-.381 1.049c-.23.32-.533.58-.908.78a2.635 2.635 0 01-1.236.292c-.477 0-.893-.084-1.249-.252a2.471 2.471 0 01-.878-.691 3.076 3.076 0 01-.522-1.008 4.263 4.263 0 01-.17-1.213v-.246c0-.426.057-.828.17-1.207.117-.383.291-.72.522-1.014.234-.293.527-.523.878-.691.356-.168.772-.252 1.249-.252.496 0 .929.102 1.3.305.371.199.662.472.873.82.215.344.332.734.352 1.172h-1.031a1.566 1.566 0 00-.223-.71 1.387 1.387 0 00-.516-.503 1.435 1.435 0 00-.755-.193c-.332 0-.612.066-.838.199a1.469 1.469 0 00-.534.527 2.496 2.496 0 00-.281.733 4.006 4.006 0 00-.082.814v.246c0 .278.027.55.082.82.055.27.147.514.276.733.132.219.31.394.533.527.226.13.508.194.844.194zM317.348 58v9h-1.084v-9h1.084zm-.258 5.59l-.451-.018c.004-.433.068-.834.193-1.2a3.01 3.01 0 01.527-.968 2.35 2.35 0 011.858-.861c.312 0 .594.043.844.129.25.082.462.215.638.398.18.184.317.422.41.715.094.29.141.643.141 1.06V67h-1.09v-4.166c0-.332-.049-.598-.146-.797a.905.905 0 00-.428-.44 1.536 1.536 0 00-.691-.14c-.27 0-.516.057-.739.17a1.77 1.77 0 00-.568.469 2.36 2.36 0 00-.369.685 2.504 2.504 0 00-.129.809zm8.414 3.527c-.442 0-.842-.074-1.201-.223a2.72 2.72 0 01-.92-.638 2.845 2.845 0 01-.586-.973 3.56 3.56 0 01-.205-1.23v-.246c0-.516.076-.975.228-1.377.153-.407.36-.75.621-1.032.262-.28.559-.494.891-.638a2.557 2.557 0 011.031-.217c.453 0 .844.078 1.172.234.332.157.604.375.815.657.211.277.367.605.468.984.102.375.153.785.153 1.23v.487h-4.735v-.885h3.651v-.082a2.732 2.732 0 00-.176-.82 1.477 1.477 0 00-.469-.657c-.215-.172-.508-.257-.879-.257a1.472 1.472 0 00-1.213.615 2.31 2.31 0 00-.345.744 3.77 3.77 0 00-.123 1.014v.246c0 .3.041.584.123.85.086.261.209.491.369.69.164.2.361.356.592.47.234.113.5.17.796.17.383 0 .708-.079.973-.235a2.4 2.4 0 00.697-.627l.657.522a3.044 3.044 0 01-.522.591c-.211.188-.471.34-.779.457a3.018 3.018 0 01-1.084.176zm7.728-1.348V58h1.09v9h-.996l-.094-1.23zm-4.265-1.869v-.123c0-.484.058-.924.176-1.318.121-.399.291-.74.509-1.025.223-.286.487-.504.791-.657a2.255 2.255 0 011.032-.234c.398 0 .746.07 1.043.21.3.138.554.339.761.604.211.262.377.578.498.95.121.37.205.79.252 1.26v.539a5.523 5.523 0 01-.252 1.253 2.954 2.954 0 01-.498.95 2.088 2.088 0 01-.761.603 2.531 2.531 0 01-1.055.205c-.371 0-.711-.08-1.02-.24a2.417 2.417 0 01-.791-.674 3.296 3.296 0 01-.509-1.02 4.46 4.46 0 01-.176-1.283zm1.09-.123v.123c0 .317.031.614.093.891.067.277.168.522.305.732.137.211.311.377.522.499.211.117.462.175.755.175.36 0 .655-.076.885-.228a1.71 1.71 0 00.563-.604c.14-.25.25-.521.328-.814v-1.412a3.125 3.125 0 00-.205-.621 1.907 1.907 0 00-.34-.54 1.474 1.474 0 00-.51-.38 1.648 1.648 0 00-.709-.141c-.297 0-.553.063-.767.188-.211.12-.385.289-.522.503a2.339 2.339 0 00-.305.739 4.076 4.076 0 00-.093.89zm9.832 1.758V60.66h1.09V67h-1.038l-.052-1.465zm.205-1.336l.451-.011c0 .421-.045.812-.135 1.171a2.508 2.508 0 01-.422.926 1.994 1.994 0 01-.767.615c-.317.145-.701.217-1.155.217-.308 0-.591-.045-.849-.135a1.691 1.691 0 01-.656-.416 1.882 1.882 0 01-.428-.732 3.52 3.52 0 01-.147-1.084v-4.09h1.084v4.102c0 .285.032.521.094.709.066.183.154.33.264.44a.977.977 0 00.375.222c.14.043.285.064.433.064.461 0 .826-.088 1.096-.263a1.5 1.5 0 00.58-.721c.121-.305.182-.643.182-1.014zM343.809 58v9h-1.09v-9h1.09zm4.371 9.117c-.442 0-.842-.074-1.201-.223a2.71 2.71 0 01-.92-.638 2.83 2.83 0 01-.586-.973 3.56 3.56 0 01-.205-1.23v-.246c0-.516.076-.975.228-1.377a3.07 3.07 0 01.621-1.032c.262-.28.559-.494.891-.638a2.557 2.557 0 011.031-.217c.453 0 .844.078 1.172.234.332.157.603.375.814.657.211.277.368.605.469.984.102.375.152.785.152 1.23v.487h-4.734v-.885h3.65v-.082a2.7 2.7 0 00-.175-.82 1.477 1.477 0 00-.469-.657c-.215-.172-.508-.257-.879-.257a1.477 1.477 0 00-1.213.615 2.31 2.31 0 00-.346.744 3.77 3.77 0 00-.123 1.014v.246c0 .3.041.584.123.85.086.261.209.491.37.69.164.2.361.356.591.47.235.113.5.17.797.17.383 0 .707-.079.973-.235a2.4 2.4 0 00.697-.627l.656.522c-.136.207-.31.404-.521.591-.211.188-.471.34-.779.457a3.018 3.018 0 01-1.084.176zm-53.496 17.17h1.125a3.595 3.595 0 01-.463 1.447c-.25.426-.604.764-1.061 1.014-.457.246-1.027.37-1.711.37-.5 0-.955-.095-1.365-.282a3.037 3.037 0 01-1.049-.797 3.745 3.745 0 01-.68-1.248 5.335 5.335 0 01-.234-1.629v-.85c0-.597.078-1.138.234-1.623a3.67 3.67 0 01.686-1.253 3.06 3.06 0 011.084-.803 3.469 3.469 0 011.424-.281c.644 0 1.189.12 1.635.363a2.6 2.6 0 011.037 1.008c.25.425.404.92.463 1.482h-1.125a3.153 3.153 0 00-.305-1.025 1.584 1.584 0 00-.633-.668c-.273-.156-.631-.235-1.072-.235-.379 0-.713.073-1.002.217-.285.145-.526.35-.721.615a2.857 2.857 0 00-.433.956 4.84 4.84 0 00-.147 1.236v.861c0 .418.043.81.129 1.178.09.367.225.69.404.967a2 2 0 00.686.656c.277.156.605.234.984.234.481 0 .864-.076 1.149-.228.285-.153.5-.371.644-.656.149-.286.254-.627.317-1.026zM298.27 78v9h-1.084v-9h1.084zm-.258 5.59l-.451-.018c.003-.433.068-.834.193-1.2a3.01 3.01 0 01.527-.968 2.35 2.35 0 011.858-.861c.312 0 .593.043.843.129.25.082.463.215.639.398.18.184.317.422.41.715.094.29.141.643.141 1.06V87h-1.09v-4.166c0-.332-.049-.598-.146-.797a.905.905 0 00-.428-.44 1.537 1.537 0 00-.692-.14 1.61 1.61 0 00-.738.17 1.76 1.76 0 00-.568.469c-.156.199-.28.427-.369.685a2.504 2.504 0 00-.129.809zm8.414 3.527c-.442 0-.842-.074-1.201-.223a2.71 2.71 0 01-.92-.638 2.83 2.83 0 01-.586-.973 3.56 3.56 0 01-.205-1.23v-.246c0-.516.076-.975.228-1.377.153-.407.36-.75.621-1.032.262-.28.559-.494.891-.638a2.557 2.557 0 011.031-.217c.453 0 .844.078 1.172.234.332.157.604.375.814.657.211.277.368.605.469.984.102.375.153.785.153 1.23v.487h-4.735v-.885h3.651v-.082a2.732 2.732 0 00-.176-.82 1.477 1.477 0 00-.469-.657c-.215-.172-.508-.257-.879-.257a1.477 1.477 0 00-1.213.615 2.31 2.31 0 00-.345.744 3.77 3.77 0 00-.123 1.014v.246c0 .3.041.584.123.85.085.261.209.491.369.69.164.2.361.356.592.47.234.113.5.17.796.17.383 0 .707-.079.973-.235a2.4 2.4 0 00.697-.627l.657.522a3.044 3.044 0 01-.522.591c-.211.188-.471.34-.779.457a3.018 3.018 0 01-1.084.176zm6.269-.89c.258 0 .496-.053.715-.159.219-.105.399-.25.539-.433a1.2 1.2 0 00.24-.639h1.032a1.94 1.94 0 01-.381 1.049 2.604 2.604 0 01-2.145 1.072c-.476 0-.892-.084-1.248-.252a2.483 2.483 0 01-.879-.691 3.093 3.093 0 01-.521-1.008 4.263 4.263 0 01-.17-1.213v-.246c0-.426.057-.828.17-1.207.117-.383.291-.72.521-1.014.235-.293.528-.523.879-.691.356-.168.772-.252 1.248-.252.496 0 .93.101 1.301.305.371.199.662.472.873.82.215.344.332.734.352 1.172h-1.032a1.553 1.553 0 00-.222-.71 1.387 1.387 0 00-.516-.503 1.441 1.441 0 00-.756-.193c-.332 0-.611.066-.838.199a1.48 1.48 0 00-.533.527 2.469 2.469 0 00-.281.733 4.006 4.006 0 00-.082.814v.246c0 .278.027.55.082.82.055.27.146.514.275.733.133.219.311.394.534.527.226.13.507.194.843.194zM317.529 78v9h-1.09v-9h1.09zm3.873 2.66l-2.765 2.96-1.547 1.605-.088-1.155 1.107-1.324 1.969-2.086h1.324zm-.99 6.34l-2.262-3.023.563-.967 2.976 3.99h-1.277zm4.365-4.072v.89h-2.859v-.89h2.859zm2.438-4.46V87h-1.131v-8.531h1.131zm2.976 3.546V87h-1.084v-6.34h1.026l.058 1.354zm-.257 1.576l-.452-.018c.004-.433.069-.834.194-1.2a3.01 3.01 0 01.527-.968 2.35 2.35 0 011.858-.861c.312 0 .593.043.843.129.25.082.463.215.639.398.18.184.316.422.41.715.094.29.141.643.141 1.06V87h-1.09v-4.166c0-.332-.049-.598-.147-.797a.898.898 0 00-.427-.44 1.537 1.537 0 00-.692-.14 1.61 1.61 0 00-.738.17 1.76 1.76 0 00-.568.469c-.157.199-.28.427-.37.685a2.531 2.531 0 00-.128.809zM10.94 30.844c0-.2-.032-.375-.094-.528a1.005 1.005 0 00-.317-.421 2.483 2.483 0 00-.62-.358 8.664 8.664 0 00-.997-.346 9.17 9.17 0 01-1.142-.416 3.995 3.995 0 01-.874-.533 2.103 2.103 0 01-.556-.685 1.952 1.952 0 01-.194-.885 2.075 2.075 0 01.792-1.652c.257-.211.564-.375.92-.493a3.788 3.788 0 011.189-.175c.64 0 1.183.123 1.629.369.449.242.79.56 1.025.955.234.39.352.808.352 1.254h-1.125c0-.32-.069-.604-.205-.85a1.414 1.414 0 00-.621-.586c-.278-.144-.63-.217-1.055-.217-.402 0-.735.06-.996.182a1.316 1.316 0 00-.586.492 1.344 1.344 0 00-.188.71c0 .179.037.343.112.491.078.145.197.28.357.405.164.125.371.24.621.345.254.106.557.207.908.305.485.137.903.29 1.254.457.352.168.64.357.867.568.231.207.4.444.51.71.114.261.17.558.17.89 0 .348-.07.662-.21.943a2.057 2.057 0 01-.604.721 2.9 2.9 0 01-.944.463c-.363.105-.77.158-1.218.158-.395 0-.784-.054-1.166-.164a3.472 3.472 0 01-1.038-.492 2.578 2.578 0 01-.744-.809 2.244 2.244 0 01-.275-1.125h1.125c0 .293.057.545.17.756.113.207.267.38.463.516.199.137.424.238.674.304.254.063.517.094.79.094.395 0 .73-.054 1.003-.164.273-.11.48-.265.62-.469.145-.203.218-.443.218-.72zm4.95 1.383c.258 0 .497-.053.715-.159.22-.105.399-.25.54-.433.14-.188.22-.4.24-.639h1.031c-.02.375-.146.725-.38 1.049a2.6 2.6 0 01-.909.78 2.636 2.636 0 01-1.236.292c-.477 0-.893-.084-1.248-.252a2.472 2.472 0 01-.88-.691 3.088 3.088 0 01-.52-1.008 4.252 4.252 0 01-.17-1.213v-.246c0-.426.056-.828.17-1.207a3.08 3.08 0 01.52-1.014c.235-.293.528-.523.88-.691.355-.168.771-.252 1.248-.252.496 0 .93.102 1.3.305.372.199.663.472.873.82.215.344.332.734.352 1.172h-1.031a1.562 1.562 0 00-.223-.71 1.388 1.388 0 00-.515-.503 1.44 1.44 0 00-.756-.193c-.332 0-.612.066-.838.199-.223.129-.4.305-.534.527a2.46 2.46 0 00-.28.733 4.027 4.027 0 00-.083.814v.246c0 .277.028.55.082.82.055.27.147.514.276.733.133.219.31.394.533.527.226.13.508.194.844.194zM20.72 24v9h-1.084v-9h1.084zm-.258 5.59l-.451-.018c.004-.433.068-.834.193-1.2.125-.372.3-.694.527-.968a2.349 2.349 0 011.858-.861c.312 0 .594.043.844.129.25.082.463.215.638.398.18.184.317.422.41.715.094.29.141.643.141 1.06V33h-1.09v-4.166c0-.332-.049-.598-.146-.797a.9.9 0 00-.428-.44 1.535 1.535 0 00-.691-.14c-.27 0-.516.057-.739.17-.218.113-.408.27-.568.469-.156.199-.28.427-.37.685a2.507 2.507 0 00-.128.809zm8.414 3.527c-.441 0-.842-.074-1.201-.222a2.723 2.723 0 01-.92-.64 2.841 2.841 0 01-.586-.972 3.566 3.566 0 01-.205-1.23v-.246c0-.516.076-.975.228-1.377.153-.407.36-.75.622-1.032a2.66 2.66 0 01.89-.638 2.557 2.557 0 011.031-.217c.453 0 .844.078 1.172.234.332.157.604.375.815.657.21.277.367.605.468.984a4.7 4.7 0 01.153 1.23v.487h-4.735v-.885h3.65v-.082a2.701 2.701 0 00-.175-.82 1.474 1.474 0 00-.469-.657c-.215-.171-.508-.257-.879-.257a1.475 1.475 0 00-1.213.615 2.3 2.3 0 00-.345.744 3.77 3.77 0 00-.123 1.014v.246c0 .3.04.584.123.85.086.261.209.492.369.69.164.2.361.356.592.47.234.113.5.17.797.17.382 0 .707-.079.972-.235.266-.156.498-.365.698-.627l.656.522c-.137.207-.31.404-.522.591a2.49 2.49 0 01-.779.457 3.017 3.017 0 01-1.084.176zm7.728-1.347V24h1.09v9h-.996l-.094-1.23zm-4.265-1.87v-.123c0-.484.059-.924.176-1.318.12-.398.29-.74.51-1.025.222-.286.486-.504.79-.657a2.25 2.25 0 011.032-.234c.398 0 .746.07 1.043.21.3.138.554.339.761.604.211.262.377.579.498.95.121.37.205.79.252 1.26v.538a5.523 5.523 0 01-.252 1.254 2.958 2.958 0 01-.498.95 2.08 2.08 0 01-.761.603 2.527 2.527 0 01-1.055.205 2.18 2.18 0 01-1.02-.24 2.407 2.407 0 01-.79-.674 3.284 3.284 0 01-.51-1.02 4.489 4.489 0 01-.176-1.283zm1.09-.123v.123c0 .317.031.614.094.891.066.277.168.521.304.732.137.211.31.377.522.499.21.117.462.175.755.175.36 0 .655-.076.885-.228a1.71 1.71 0 00.563-.604c.14-.25.25-.521.328-.814v-1.412a3.125 3.125 0 00-.205-.621 1.913 1.913 0 00-.34-.54 1.47 1.47 0 00-.51-.38 1.65 1.65 0 00-.709-.141 1.5 1.5 0 00-.767.188c-.211.12-.385.289-.522.503a2.332 2.332 0 00-.304.739 4.045 4.045 0 00-.094.89zm9.832 1.758V26.66h1.09V33h-1.038l-.052-1.465zm.205-1.336l.451-.012c0 .422-.045.813-.135 1.172a2.517 2.517 0 01-.422.926 1.995 1.995 0 01-.767.615c-.317.145-.701.217-1.154.217a2.56 2.56 0 01-.85-.135 1.697 1.697 0 01-.656-.416 1.894 1.894 0 01-.428-.732 3.53 3.53 0 01-.147-1.084v-4.09h1.084v4.102c0 .285.032.521.094.709.067.183.155.33.264.44a.977.977 0 00.375.222c.14.043.285.064.433.064.461 0 .827-.088 1.096-.263a1.5 1.5 0 00.58-.721c.121-.305.182-.643.182-1.014zM47.18 24v9h-1.09v-9h1.09zm4.37 9.117c-.44 0-.841-.074-1.2-.222a2.722 2.722 0 01-.92-.64 2.841 2.841 0 01-.586-.972 3.566 3.566 0 01-.205-1.23v-.246c0-.516.076-.975.228-1.377.153-.407.36-.75.621-1.032a2.66 2.66 0 01.89-.638 2.557 2.557 0 011.032-.217c.453 0 .844.078 1.172.234.332.157.603.375.815.657.21.277.367.605.468.984.102.375.153.785.153 1.23v.487h-4.735v-.885h3.65v-.082a2.701 2.701 0 00-.175-.82 1.474 1.474 0 00-.469-.657c-.215-.171-.508-.257-.879-.257a1.475 1.475 0 00-1.213.615 2.3 2.3 0 00-.345.744 3.77 3.77 0 00-.123 1.014v.246c0 .3.04.584.123.85.086.261.209.492.369.69.164.2.361.356.592.47.234.113.5.17.796.17.383 0 .707-.079.973-.235.266-.156.498-.365.697-.627l.656.522c-.136.207-.31.404-.52.591a2.49 2.49 0 01-.78.457 3.017 3.017 0 01-1.084.176zm-37.323 17.17h1.125a3.588 3.588 0 01-.463 1.447 2.71 2.71 0 01-1.06 1.014c-.458.246-1.028.37-1.712.37-.5 0-.955-.095-1.365-.282a3.034 3.034 0 01-1.049-.797 3.73 3.73 0 01-.68-1.248 5.327 5.327 0 01-.234-1.629v-.85c0-.597.078-1.138.234-1.622.16-.489.39-.907.686-1.255a3.06 3.06 0 011.084-.802 3.47 3.47 0 011.424-.281c.644 0 1.19.12 1.635.363.445.242.79.578 1.037 1.008.25.425.404.92.463 1.482h-1.125a3.136 3.136 0 00-.305-1.025 1.585 1.585 0 00-.633-.668c-.273-.157-.63-.235-1.072-.235-.38 0-.713.073-1.002.217a2.02 2.02 0 00-.72.615 2.864 2.864 0 00-.434.956 4.858 4.858 0 00-.147 1.236v.861c0 .418.043.81.129 1.178.09.367.225.69.404.967.18.277.409.496.686.656.277.156.605.234.984.234.48 0 .863-.076 1.149-.228.285-.153.5-.371.644-.657.149-.285.254-.627.317-1.025zM17.812 44v9h-1.084v-9h1.084zm-.257 5.59l-.451-.018c.003-.433.068-.834.193-1.2.125-.372.3-.694.527-.968a2.35 2.35 0 011.858-.861c.312 0 .593.043.843.129.25.082.463.215.64.398.179.184.316.422.41.715.093.29.14.643.14 1.06V53h-1.09v-4.166c0-.332-.049-.598-.146-.797a.9.9 0 00-.428-.44 1.535 1.535 0 00-.692-.14c-.27 0-.515.057-.738.17a1.76 1.76 0 00-.568.469c-.157.199-.28.427-.37.685a2.507 2.507 0 00-.128.809zm8.414 3.527c-.442 0-.842-.074-1.201-.222a2.722 2.722 0 01-.92-.64 2.842 2.842 0 01-.586-.972 3.568 3.568 0 01-.205-1.23v-.246c0-.516.076-.975.228-1.377.152-.407.36-.75.621-1.032a2.68 2.68 0 01.89-.638 2.557 2.557 0 011.032-.217c.453 0 .844.078 1.172.234.332.157.604.375.814.657.211.277.368.605.47.984.1.375.152.785.152 1.23v.487H23.7v-.885h3.65v-.082a2.707 2.707 0 00-.175-.82 1.475 1.475 0 00-.469-.657c-.215-.172-.508-.257-.879-.257a1.475 1.475 0 00-1.213.615 2.304 2.304 0 00-.345.744 3.77 3.77 0 00-.123 1.014v.246c0 .3.04.584.123.85.085.261.209.492.369.69.164.2.361.356.591.47.235.113.5.17.797.17.383 0 .707-.079.973-.235a2.41 2.41 0 00.697-.627l.657.522a3.026 3.026 0 01-.522.591c-.21.188-.47.34-.78.457a3.017 3.017 0 01-1.083.176zm6.27-.89c.257 0 .495-.053.714-.159.219-.105.399-.25.54-.433.14-.188.22-.4.24-.639h1.03a1.93 1.93 0 01-.38 1.049 2.6 2.6 0 01-.908.78 2.636 2.636 0 01-1.237.292c-.476 0-.892-.084-1.248-.252a2.473 2.473 0 01-.879-.691 3.09 3.09 0 01-.521-1.008 4.256 4.256 0 01-.17-1.213v-.246c0-.426.057-.828.17-1.207.117-.383.29-.72.521-1.014.235-.293.528-.523.88-.691.355-.168.77-.252 1.247-.252.496 0 .93.102 1.301.305.371.199.662.472.873.82.215.344.332.734.352 1.172h-1.032a1.56 1.56 0 00-.222-.71 1.388 1.388 0 00-.516-.503 1.44 1.44 0 00-.756-.193c-.332 0-.611.066-.838.199-.222.129-.4.304-.533.527a2.46 2.46 0 00-.281.733 4.027 4.027 0 00-.082.814v.246c0 .277.027.55.082.82.055.27.146.514.275.733.133.219.31.394.534.527.226.13.507.194.843.194zM37.071 44v9h-1.09v-9h1.09zm3.873 2.66l-2.765 2.96-1.547 1.605-.088-1.155 1.107-1.324 1.97-2.086h1.323zm-.99 6.34l-2.262-3.023.563-.967L41.232 53h-1.277zm4.365-4.072v.89h-2.86v-.89h2.86zm2.438-4.46V53h-1.131v-8.531h1.13zm2.976 3.546V53H48.65v-6.34h1.026l.058 1.354zm-.257 1.576l-.452-.018c.004-.433.069-.834.194-1.2.125-.372.3-.694.527-.968a2.35 2.35 0 011.857-.861c.313 0 .594.043.844.129.25.082.463.215.639.398.18.184.316.422.41.715.094.29.14.643.14 1.06V53h-1.09v-4.166c0-.332-.048-.598-.146-.797a.9.9 0 00-.427-.44 1.535 1.535 0 00-.692-.14c-.27 0-.515.057-.738.17a1.76 1.76 0 00-.568.469c-.157.199-.28.427-.37.685a2.504 2.504 0 00-.128.809z" fill="#1C1C1C"/><path d="M72.029 45.055l-5.353-16.8h-9.157m213.058 48.873l5.353-16.8h9.156" stroke="#000" stroke-width=".6"/><path d="M174.021 2.548A98.89 98.89 0 0061.003 103.424a98.889 98.889 0 0062.434 88.939 98.892 98.892 0 00133.275-72.019l-43.379-8.923a54.605 54.605 0 11-45.659-65.042l6.347-43.83z" fill="url(#paint0_linear_482_2057)" fill-opacity=".3"/><path d="M245.207 50.484a98.892 98.892 0 10-39.217 137.402l-20.928-39.672a54.038 54.038 0 1121.43-75.081l38.715-22.649z" fill="url(#paint1_linear_482_2057)"/><path d="M268.091 117.254a98.9 98.9 0 00-9.691-64.478l-49.771 26.237a42.63 42.63 0 014.178 27.794l55.284 10.447z" fill="url(#paint2_linear_482_2057)"/><defs><linearGradient id="paint0_linear_482_2057" x1="159.849" y1="1.527" x2="159.849" y2="199.31" gradientUnits="userSpaceOnUse"><stop stop-color="#B89CF9"/><stop offset="1" stop-color="#677DFD"/></linearGradient><linearGradient id="paint1_linear_482_2057" x1="159.849" y1="1.527" x2="159.849" y2="199.31" gradientUnits="userSpaceOnUse"><stop stop-color="#B89CF9"/><stop offset="1" stop-color="#677DFD"/></linearGradient><linearGradient id="paint2_linear_482_2057" x1="170.919" y1="0" x2="170.919" y2="197.783" gradientUnits="userSpaceOnUse"><stop stop-color="#B9E092"/><stop offset="1" stop-color="#9DC253"/></linearGradient></defs></svg>