<svg width="374" height="40" viewBox="0 0 374 40" fill="none" xmlns="http://www.w3.org/2000/svg">
<path d="M27.9333 27.3121H7.23549C8.09622 30.8111 10.5775 33.475 15.2813 33.475C18.4531 33.4011 21.5404 32.3897 24.1878 30.5574L27.0188 35.8077C23.492 38.4041 19.2853 39.7937 14.9753 39.786C4.65667 39.7754 0 32.4179 0 24.6658C0 16.0222 5.76956 9.51396 14.3701 9.51396C22.2142 9.51396 28.1855 14.8735 28.1855 24.0456C28.1808 25.1396 28.0965 26.2316 27.9333 27.3121V27.3121ZM7.23549 21.7412H21.2526C21.0295 20.0165 20.2004 18.4411 18.9275 17.3234C17.6545 16.2057 16.0294 15.6261 14.3701 15.698C12.689 15.6498 11.0467 16.232 9.73881 17.3399C8.43087 18.4477 7.54317 20.0084 7.23549 21.7412V21.7412ZM30.0582 10.2398H37.0415V14.2674C38.457 11.5612 41.5973 9.43996 45.6959 9.43996C51.2603 9.43996 56.4718 13.316 56.4718 21.4769V39.1376H49.3372V23.4924C49.3372 18.8271 46.9601 16.3323 43.5172 16.3323C39.775 16.3323 37.1928 19.3028 37.1928 23.651V39.1376H30.0582V10.2398ZM79.1936 37.4427C76.7452 39.0213 73.9216 39.8445 71.047 39.8177C64.7227 39.8177 61.4311 35.8923 61.4311 28.415V16.4944H56.9257V10.2398H61.4848V0H68.569V10.2398H77.6672V16.4979H68.569V27.9499C68.569 31.2903 69.7828 33.0416 72.4591 33.0416C74.0923 32.9773 75.6807 32.4645 77.0654 31.5546L79.1936 37.4427Z" fill="#EB0045"/>
<path d="M105.661 27.3121H84.9635C85.8242 30.8111 88.3021 33.475 93.0092 33.475C96.181 33.4005 99.2682 32.3892 101.916 30.5574L104.75 35.8077C101.222 38.4046 97.0142 39.7931 92.7033 39.7824C82.3746 39.7719 77.7246 32.4179 77.7246 24.6658C77.7246 16.0187 83.4942 9.51396 92.0947 9.51396C99.9388 9.51396 105.91 14.8735 105.91 24.0456C105.906 25.1489 105.823 26.2502 105.661 27.3403V27.3121ZM84.9635 21.7412H98.9805C98.7568 20.0168 97.9275 18.4419 96.6547 17.3244C95.3819 16.2068 93.7572 15.6269 92.0981 15.698C90.417 15.6498 88.7747 16.232 87.4668 17.3399C86.1588 18.4477 85.2711 20.0084 84.9635 21.7412ZM152.789 24.6658C152.789 15.8566 158.862 9.51396 167.617 9.51396C173.08 9.51396 178.141 12.3329 180.471 17.5762L174.755 20.8638C174.052 19.5493 173.033 18.451 171.799 17.6787C170.565 16.9063 169.158 16.487 167.721 16.4627C165.659 16.4814 163.686 17.3479 162.226 18.8757C160.767 20.4035 159.939 22.4705 159.919 24.632C159.899 26.7935 160.69 28.8768 162.12 30.4337C163.551 31.9907 165.508 32.8967 167.57 32.9571C169.005 32.942 170.412 32.5297 171.646 31.7618C172.881 30.9938 173.9 29.8976 174.6 28.5842L180.366 32.136C178.04 36.7521 173.131 39.7754 167.412 39.7754C158.811 39.7754 152.789 33.4645 152.789 24.6552V24.6658ZM202.742 37.4392C200.292 39.0203 197.466 39.8448 194.589 39.8177C188.261 39.8177 184.973 35.8923 184.973 28.415V16.4944H180.467V10.2398H185.023V0H192.107V10.2398H201.219V16.4979H192.107V27.9499C192.107 31.2903 193.324 33.0416 196.004 33.0416C197.637 32.9773 199.226 32.4645 200.61 31.5546L202.742 37.4392ZM124.849 10.4336C124.849 12.6113 124.823 14.6339 124.849 16.6529C124.849 17.326 124.426 17.4035 124.029 17.6043C120.297 19.4895 117.641 22.3578 116.72 26.6955C116.492 27.9023 116.379 29.1299 116.383 30.3601C116.333 33.2671 116.383 36.1742 116.383 39.1376H108.791C108.771 38.8275 108.741 38.5315 108.738 38.2355C108.738 35.7302 108.835 33.2213 108.707 30.7266C108.619 28.3925 109.108 26.0742 110.126 23.9963C112.964 17.8052 117.234 13.2209 123.498 10.86C123.891 10.7085 124.301 10.6028 124.843 10.4336H124.849ZM108.855 21.1069C108.855 16.6424 108.798 13.9573 108.798 9.38006H116.256C116.402 9.89201 116.399 10.4379 116.249 10.9485C116.099 11.4591 115.807 11.9115 115.412 12.2483C112.567 14.8805 110.768 16.4768 109.36 20.1484C109.235 20.4797 109.097 20.8109 108.966 21.1421L108.855 21.1069ZM150.14 19.7679C150.019 15.2329 148.146 11.5718 143.93 9.78176C138.803 7.60764 133.625 8.01991 128.487 9.86985C128.289 9.94385 128.013 10.2046 128.01 10.3808C127.976 12.3858 127.99 14.3907 127.99 16.4873C128.662 16.2301 129.204 15.994 129.762 15.8214C132.989 14.6864 136.495 14.7787 139.663 16.0821C140.821 16.4828 141.787 17.3339 142.364 18.4597C142.94 19.5854 143.082 20.9001 142.76 22.1323C141.385 21.8504 140.02 21.4593 138.635 21.3183C137.201 21.1809 135.758 21.1809 134.324 21.3183C129.778 21.7517 125.71 24.028 125.532 30.0077C125.424 33.6583 126.396 36.7274 129.671 38.5562C132.697 40.244 138.359 40.459 141.775 37.2665C142.057 37.0058 142.356 36.7662 142.824 36.3609V39.1799H150.086C150.121 39.0649 150.147 38.947 150.164 38.8275C150.164 32.4849 150.295 26.1422 150.127 19.7996L150.14 19.7679ZM139.045 33.9155C134.311 35.0536 131.523 33.8345 131.601 30.2579C131.678 26.6814 134.859 25.6278 137.959 25.952C139.442 26.081 140.917 26.2986 142.377 26.6038C142.377 26.6038 143.785 32.7703 139.055 33.9155H139.045Z" fill="#EB0045"/>
<path d="M210.697 39.2142C211.544 39.2184 212.373 38.959 213.079 38.4689C213.785 37.9788 214.336 37.28 214.663 36.4612C214.99 35.6424 215.077 34.7403 214.914 33.8694C214.751 32.9985 214.345 32.1979 213.747 31.569C213.15 30.9402 212.387 30.5115 211.557 30.3373C210.727 30.163 209.865 30.251 209.083 30.5902C208.3 30.9293 207.631 31.5043 207.161 32.2423C206.691 32.9803 206.44 33.8481 206.44 34.7356C206.44 35.9204 206.888 37.0569 207.686 37.8963C208.484 38.7356 209.567 39.2096 210.697 39.2142V39.2142Z" fill="#EB0045"/>
<path d="M245.049 11.0618H249.121V37.5952H245.049V33.7755C242.733 36.753 239.75 38.24 236.011 38.24C232.367 38.24 229.341 36.901 226.934 34.223C224.519 31.4957 223.336 28.1728 223.336 24.1558C223.336 20.1388 224.519 16.9146 226.934 14.3353C229.348 11.756 232.374 10.417 236.011 10.417C237.755 10.3822 239.483 10.7789 241.053 11.5748C242.623 12.3708 243.992 13.5434 245.049 14.9978V11.0618ZM242.874 17.3586C241.216 15.4276 239.088 14.4833 236.438 14.4833C233.789 14.4833 231.657 15.4276 230.003 17.3586C228.349 19.2896 227.589 21.5871 227.589 24.3531C227.527 26.9238 228.389 29.4251 230.003 31.3618C231.657 33.2469 233.789 34.1807 236.438 34.1807C239.088 34.1807 241.216 33.2364 242.874 31.3618C244.541 29.4363 245.438 26.9136 245.382 24.3144C245.438 21.7427 244.539 19.2486 242.874 17.3586ZM257.496 34.3217C254.988 31.693 253.757 28.3701 253.757 24.3531C253.757 20.3361 255.035 16.9534 257.543 14.3353C260.051 11.7172 263.363 10.417 267.337 10.417C272.307 10.417 276.849 13.1443 278.789 17.3093L275.289 19.4446C273.537 16.4178 270.602 14.4833 267.337 14.4833C264.647 14.4833 262.424 15.4229 260.667 17.3022C259.796 18.2303 259.113 19.3326 258.658 20.5434C258.202 21.7542 257.985 23.0487 258.017 24.3496C258.017 27.1263 258.869 29.4566 260.572 31.3406C261.422 32.2465 262.44 32.9606 263.563 33.4387C264.686 33.9168 265.89 34.149 267.102 34.1208C268.755 34.1154 270.375 33.6353 271.785 32.7325C273.189 31.9195 274.352 30.7175 275.148 29.2581L278.648 31.3935C276.567 35.4105 272.024 38.1871 267.102 38.1871C263.175 38.1907 260.004 36.901 257.496 34.3217ZM284.848 34.3217C282.339 31.693 281.109 28.3701 281.109 24.3531C281.109 20.3361 282.387 16.9534 284.895 14.3353C287.403 11.7172 290.715 10.417 294.689 10.417C299.658 10.417 304.201 13.1443 306.141 17.3093L302.641 19.4446C300.889 16.4178 297.954 14.4833 294.689 14.4833C291.999 14.4833 289.776 15.4229 288.018 17.3022C287.148 18.2303 286.464 19.3326 286.009 20.5434C285.554 21.7542 285.336 23.0487 285.369 24.3496C285.369 27.1263 286.219 29.4566 287.921 31.3406C288.771 32.2463 289.79 32.9601 290.913 33.4382C292.036 33.9163 293.241 34.1486 294.454 34.1208C296.106 34.1165 297.726 33.6375 299.137 32.736C300.541 31.923 301.704 30.7211 302.499 29.2616L305.999 31.397C303.918 35.414 299.376 38.1907 294.454 38.1907C290.526 38.1907 287.356 36.901 284.848 34.3217ZM333.257 26.189H312.956C313.665 30.8015 316.55 34.075 322.034 34.075C325.231 33.9903 328.337 32.9392 330.977 31.0482L332.776 34.4697C330.315 36.5028 326.153 38.1907 321.94 38.1907C312.428 38.1907 308.491 31.1961 308.491 24.2545C308.491 20.2375 309.674 16.964 312.038 14.3353C314.402 11.7066 317.481 10.417 321.22 10.417C324.767 10.417 327.702 11.608 329.962 14.0358C332.221 16.4636 333.398 19.7336 333.398 23.8563C333.398 24.2052 333.351 24.998 333.257 26.189ZM312.956 22.2213H328.95C328.715 17.4608 325.463 14.4481 321.237 14.4481C316.883 14.4481 313.665 17.6194 312.956 22.2213ZM335.573 32.3378L338.791 30.0087C340.26 32.8276 342.624 34.2723 344.944 34.2723C347.735 34.2723 349.58 32.4858 349.58 30.4526C349.58 29.015 348.776 27.8252 347.166 26.8832C346.649 26.5836 345.653 26.0903 344.093 25.3962C343.013 24.9428 341.957 24.4288 340.929 23.8563C338.421 22.4186 337.144 20.2868 337.144 17.5137C337.115 16.5236 337.295 15.5391 337.671 14.6304C338.047 13.7216 338.61 12.911 339.319 12.2563C340.785 10.868 342.772 10.1738 345.186 10.1738C348.404 10.1738 351.574 11.6608 353.091 14.4375L350.25 17.0662C348.972 14.9837 347.173 13.9407 344.904 13.9407C342.49 13.9407 341.165 15.4805 341.165 17.3128C341.165 18.7505 341.874 19.8428 343.246 20.537L346.134 21.9253C347.6 22.5702 348.737 23.1163 349.446 23.5145C352.334 25.1002 353.753 27.3307 353.753 30.2095C353.758 31.2851 353.536 32.3484 353.102 33.3232C352.668 34.298 352.034 35.1601 351.245 35.8474C349.587 37.3873 347.412 38.1801 344.809 38.1801C341.017 38.1907 337.466 36.2562 335.573 32.3378ZM355.827 32.3378L359.045 30.0087C360.511 32.8276 362.878 34.2723 365.198 34.2723C367.989 34.2723 369.834 32.4858 369.834 30.4526C369.834 29.015 369.03 27.8252 367.42 26.8832C366.903 26.5836 365.907 26.0903 364.344 25.3962C363.262 24.9423 362.203 24.4283 361.173 23.8563C358.665 22.4186 357.387 20.2868 357.387 17.5137C357.359 16.5234 357.54 15.5388 357.917 14.6301C358.293 13.7213 358.857 12.9109 359.566 12.2563C361.032 10.868 363.019 10.1738 365.433 10.1738C368.651 10.1738 371.822 11.6608 373.338 14.4375L370.497 17.0662C369.219 14.9837 367.42 13.9407 365.151 13.9407C362.737 13.9407 361.412 15.4805 361.412 17.3128C361.412 18.7505 362.122 19.8428 363.493 20.537L366.381 21.9253C367.847 22.5702 368.984 23.1163 369.693 23.5145C372.578 25.1002 374 27.3307 374 30.2095C374.005 31.2849 373.782 32.3481 373.348 33.3227C372.915 34.2974 372.281 35.1596 371.492 35.8474C369.834 37.3873 367.659 38.1801 365.057 38.1801C361.271 38.1907 357.72 36.2562 355.827 32.3378Z" fill="#9398A5"/>
</svg>
