<svg width="49" height="48" viewBox="0 0 49 48" fill="none" xmlns="http://www.w3.org/2000/svg">
<path d="M46.3062 31.0315C48.1812 31.8752 49.2124 33.9377 48.7437 35.9064L46.7749 44.7189C46.3062 46.6877 44.6187 48.0002 42.5562 48.0002C19.5874 48.0002 0.931152 29.3439 0.931152 6.3752C0.931152 4.3127 2.24365 2.6252 4.2124 2.2502L13.0249 0.1877C14.9937 -0.28105 17.0562 0.7502 17.8999 2.6252L21.9312 12.1877C22.6812 13.8752 22.2124 15.9377 20.8062 17.1565L16.9624 20.2502C19.6812 25.1252 23.8062 29.2502 28.6812 31.969L31.8687 28.219C32.9937 26.719 35.0562 26.2502 36.7437 26.9065L46.3062 31.0315ZM43.7749 44.0627L45.8374 35.2502C46.0249 34.5939 45.6499 34.0314 45.0874 33.7502L35.6187 29.719C35.0562 29.5315 34.4937 29.6252 34.1187 30.094L30.2749 34.7814C29.8062 35.3439 29.0562 35.5314 28.4937 35.1564C22.1187 32.0627 16.8687 26.8127 13.7749 20.5315C13.3999 19.8752 13.5874 19.1252 14.1499 18.6565L18.8374 14.8127C19.3062 14.4377 19.3999 13.8752 19.2124 13.3127L15.1812 3.84395C14.8999 3.3752 14.4312 3.0002 13.9624 3.0002C13.8687 3.0002 13.7749 3.09395 13.6812 3.09395L4.86865 5.15645C4.30615 5.2502 3.93115 5.71895 3.93115 6.3752C3.93115 27.6564 21.2749 45.0939 42.5562 45.0939C43.2124 45.0939 43.6812 44.6252 43.7749 44.0627Z" fill="#737B81"/>
</svg>
