<svg width="24" height="25" viewBox="0 0 24 25" fill="none" xmlns="http://www.w3.org/2000/svg">
<path d="M12 24.5C5.34375 24.5 0 19.1562 0 12.5C0 5.89062 5.34375 0.5 12 0.5C18.6094 0.5 24 5.89062 24 12.5C24 19.1562 18.6094 24.5 12 24.5ZM17.2969 10.2969H17.25C17.7188 9.875 17.7188 9.17188 17.25 8.70312C16.8281 8.28125 16.125 8.28125 15.7031 8.70312L10.5 13.9531L8.29688 11.75C7.82812 11.2812 7.125 11.2812 6.70312 11.75C6.23438 12.1719 6.23438 12.875 6.70312 13.2969L9.70312 16.2969C10.125 16.7656 10.8281 16.7656 11.2969 16.2969L17.2969 10.2969Z" fill="white"/>
</svg>
