<svg width="43" height="48" viewBox="0 0 43 48" fill="none" xmlns="http://www.w3.org/2000/svg">
<path d="M21.9312 24C15.2749 24 9.93115 18.6562 9.93115 12C9.93115 5.4375 15.2749 0 21.9312 0C28.4937 0 33.9312 5.4375 33.9312 12C33.9312 18.6562 28.4937 24 21.9312 24ZM21.9312 3C16.9624 3 12.9312 7.125 12.9312 12C12.9312 16.9688 16.9624 21 21.9312 21C26.8062 21 30.9312 16.9688 30.9312 12C30.9312 7.125 26.8062 3 21.9312 3ZM26.6187 28.5C35.6187 28.5 42.9312 35.8125 42.9312 44.8125C42.9312 46.5938 41.4312 48 39.6499 48H4.11865C2.3374 48 0.931152 46.5938 0.931152 44.8125C0.931152 35.8125 8.1499 28.5 17.1499 28.5H26.6187ZM39.6499 45C39.7437 45 39.9312 44.9062 39.9312 44.8125C39.9312 37.5 33.9312 31.5 26.6187 31.5H17.1499C9.8374 31.5 3.93115 37.5 3.93115 44.8125C3.93115 44.9062 4.0249 45 4.11865 45H39.6499Z" fill="#737B81"/>
</svg>
